<?xml version="1.0" encoding="UTF-8"?>
<svg width="24" height="15" viewBox="0 0 24 15" fill="none" xmlns="http://www.w3.org/2000/svg">
<style>
    path {
        fill: #000;
    }
    @media (prefers-color-scheme: dark) {
        path {
            fill: #fff;
        }
    }
    </style>
<path d="M15.2854 13.3364V14.0603H8.71462V13.3364L10.2459 13.1694C10.5429 13.1323 10.7193 13.058 10.7749 12.9466C10.8306 12.8353 10.8585 12.4548 10.8585 11.8051V4.87239C10.8585 3.49884 10.645 2.53364 10.2181 1.9768C9.80975 1.40139 9.2065 1.11369 8.40835 1.11369C7.83295 1.11369 7.1833 1.2993 6.4594 1.67053C5.75406 2.04176 5.07657 2.75638 4.42691 3.81438V11.8051C4.42691 12.4548 4.45476 12.8353 4.51044 12.9466C4.56613 13.058 4.74246 13.1323 5.03944 13.1694L6.57077 13.3364V14.0603H0V13.3364L1.53132 13.1694C1.82831 13.1323 2.00464 13.058 2.06033 12.9466C2.11601 12.8353 2.14385 12.4548 2.14385 11.8051V2.53364C2.14385 1.88399 2.11601 1.50348 2.06033 1.39211C2.00464 1.28074 1.82831 1.2065 1.53132 1.16937L0 1.03016V0.278421H4.2877V2.53364C4.93736 1.66125 5.67053 1.02088 6.48724 0.612529C7.32251 0.204176 8.14849 0 8.9652 0C10.9698 0 12.2599 0.918793 12.8353 2.75638C13.522 1.79118 14.2831 1.09513 15.1183 0.668212C15.9722 0.222737 16.826 0 17.6798 0C18.9977 0 20.0186 0.426914 20.7425 1.28074C21.4849 2.11601 21.8562 3.30394 21.8562 4.84455V11.8051C21.8562 12.4548 21.884 12.8353 21.9397 12.9466C21.9954 13.058 22.1717 13.1323 22.4687 13.1694L24 13.3364V14.0603H17.4292V13.3364L18.9606 13.1694C19.2575 13.1323 19.4339 13.058 19.4896 12.9466C19.5452 12.8353 19.5731 12.4548 19.5731 11.8051V4.87239C19.5731 3.49884 19.3596 2.53364 18.9327 1.9768C18.5244 1.40139 17.9211 1.11369 17.123 1.11369C16.5476 1.11369 15.8886 1.30858 15.1462 1.69837C14.4223 2.0696 13.7355 2.80278 13.0858 3.89791C13.1044 4.0464 13.1137 4.20418 13.1137 4.37123C13.1323 4.51972 13.1415 4.67749 13.1415 4.84455V11.8051C13.1415 12.4548 13.1694 12.8353 13.2251 12.9466C13.2807 13.058 13.4571 13.1323 13.7541 13.1694L15.2854 13.3364Z" />
</svg>
